# Blender 3.3.0
# www.blender.org
mtllib parete_dietro.mtl
o Parete_dietro
v 20.000000 21.000000 40.000000
v 20.000000 21.000000 0.000000
v 20.000000 20.000000 40.000000
v 20.000000 20.000000 0.000000
v -20.000000 21.000000 40.000000
v -20.000000 21.000000 0.000000
v -20.000000 20.000000 40.000000
v -20.000000 20.000000 0.000000
vn 1.0000 -0.0000 -0.0000
vn -0.0000 -1.0000 -0.0000
vn -1.0000 -0.0000 -0.0000
vn -0.0000 1.0000 -0.0000
vn -0.0000 -0.0000 1.0000
vn -0.0000 -0.0000 -1.0000
vt 0.012194 0.987145
vt 0.837771 0.997048
vt 0.641904 1.164963
vt 0.010631 0.016560
vt 0.836174 0.005129
vt 0.639761 -0.166392
vt 0.240204 0.985583
vt 0.199876 0.999990
vt 0.501072 1.165678
vt 0.238641 0.014998
vt 0.198271 0.003182
vt 0.498928 -0.165678
vt 0.522991 0.998644
vt 0.641190 0.721178
vt 0.521394 0.006726
vt 0.640476 0.277393
vt 0.516207 0.998385
vt 0.500357 0.721893
vt 0.514603 0.001577
vt 0.499643 0.278107
s 0
usemtl Fato_2
f 1/1/1 3/7/1 4/10/1 2/4/1
f 3/8/2 7/17/2 8/19/2 4/11/2
f 7/18/3 5/14/3 6/16/3 8/20/3
f 5/13/4 1/2/4 2/5/4 6/15/4
f 3/9/5 1/3/5 5/14/5 7/18/5
f 8/20/6 6/16/6 2/6/6 4/12/6
