# Blender 3.3.0
# www.blender.org
mtllib player.mtl
o Player
v -7.500000 7.500000 2.500000
v -7.500000 -7.500000 2.500000
v -7.500000 7.500000 3.500000
v -7.500000 -7.500000 3.500000
v 7.500000 7.500000 2.500000
v 7.500000 -7.500000 2.500000
v 7.500000 7.500000 3.500000
v 7.500000 -7.500000 3.500000
vn -1.0000 -0.0000 -0.0000
vn -0.0000 -0.0000 1.0000
vn 1.0000 -0.0000 -0.0000
vn -0.0000 -0.0000 -1.0000
vn -0.0000 1.0000 -0.0000
vn -0.0000 -1.0000 -0.0000
vt 0.570158 0.434112
vt 0.622589 0.429601
vt 0.571002 0.492173
vt 0.624106 0.434112
vt 0.568642 0.429601
vt 0.566142 0.431299
vt 0.570158 0.494812
vt 0.220486 1.080893
vt 0.571002 0.432542
vt 0.624106 0.494812
vt -0.102740 0.347551
vt 0.566142 0.491999
vt 0.623543 0.429963
vt 0.622589 0.490302
vt 0.623998 0.492173
vt 0.570961 0.429963
vt 0.568642 0.490302
vt 0.620089 0.431299
vt 0.872243 0.717208
vt 0.623543 0.489127
vt 0.623998 0.432542
vt 0.549018 -0.016134
vt 0.570961 0.489127
vt 0.620089 0.491999
s 0
usemtl Gollum
f 1/1/1 2/4/1 4/10/1 3/7/1
f 3/8/2 4/11/2 8/22/2 7/19/2
f 7/20/3 8/23/3 6/16/3 5/13/3
f 5/14/4 6/17/4 2/5/4 1/2/4
f 3/9/5 7/21/5 5/15/5 1/3/5
f 8/24/6 4/12/6 2/6/6 6/18/6
